<svg id="Layer_1" data-name="Layer 1" xmlns="http://www.w3.org/2000/svg" xmlns:xlink="http://www.w3.org/1999/xlink" width="1366" height="768" viewBox="0 0 1366 768"><defs><style>.cls-1,.cls-10,.cls-11,.cls-12,.cls-13,.cls-14,.cls-15,.cls-16,.cls-17,.cls-18,.cls-19,.cls-2,.cls-20,.cls-21,.cls-22,.cls-23,.cls-24,.cls-25,.cls-26,.cls-27,.cls-28,.cls-29,.cls-3,.cls-30,.cls-31,.cls-32,.cls-33,.cls-34,.cls-35,.cls-36,.cls-37,.cls-38,.cls-39,.cls-4,.cls-40,.cls-41,.cls-42,.cls-43,.cls-44,.cls-45,.cls-46,.cls-47,.cls-48,.cls-49,.cls-5,.cls-50,.cls-51,.cls-52,.cls-53,.cls-54,.cls-55,.cls-56,.cls-57,.cls-58,.cls-59,.cls-6,.cls-60,.cls-61,.cls-62,.cls-7,.cls-8,.cls-9{fill:none;stroke-miterlimit:10;stroke-width:3px;}.cls-1{stroke:url(#linear-gradient);}.cls-2{stroke:url(#linear-gradient-2);}.cls-3{stroke:url(#linear-gradient-3);}.cls-4{stroke:url(#linear-gradient-4);}.cls-5{stroke:url(#linear-gradient-5);}.cls-6{stroke:url(#linear-gradient-6);}.cls-7{stroke:url(#linear-gradient-7);}.cls-8{stroke:url(#linear-gradient-8);}.cls-9{stroke:url(#linear-gradient-9);}.cls-10{stroke:url(#linear-gradient-10);}.cls-11{stroke:url(#linear-gradient-11);}.cls-12{stroke:url(#linear-gradient-12);}.cls-13{stroke:url(#linear-gradient-13);}.cls-14{stroke:url(#linear-gradient-14);}.cls-15{stroke:url(#linear-gradient-15);}.cls-16{stroke:url(#linear-gradient-16);}.cls-17{stroke:url(#linear-gradient-17);}.cls-18{stroke:url(#linear-gradient-18);}.cls-19{stroke:url(#linear-gradient-19);}.cls-20{stroke:url(#linear-gradient-20);}.cls-21{stroke:url(#linear-gradient-21);}.cls-22{stroke:url(#linear-gradient-22);}.cls-23{stroke:url(#linear-gradient-23);}.cls-24{stroke:url(#linear-gradient-24);}.cls-25{stroke:url(#linear-gradient-25);}.cls-26{stroke:url(#linear-gradient-26);}.cls-27{stroke:url(#linear-gradient-27);}.cls-28{stroke:url(#linear-gradient-28);}.cls-29{stroke:url(#linear-gradient-29);}.cls-30{stroke:url(#linear-gradient-30);}.cls-31{stroke:url(#linear-gradient-31);}.cls-32{stroke:url(#linear-gradient-32);}.cls-33{stroke:url(#linear-gradient-33);}.cls-34{stroke:url(#linear-gradient-34);}.cls-35{stroke:url(#linear-gradient-35);}.cls-36{stroke:url(#linear-gradient-36);}.cls-37{stroke:url(#linear-gradient-37);}.cls-38{stroke:url(#linear-gradient-38);}.cls-39{stroke:url(#linear-gradient-39);}.cls-40{stroke:url(#linear-gradient-40);}.cls-41{stroke:url(#linear-gradient-41);}.cls-42{stroke:url(#linear-gradient-42);}.cls-43{stroke:url(#linear-gradient-43);}.cls-44{stroke:url(#linear-gradient-44);}.cls-45{stroke:url(#linear-gradient-45);}.cls-46{stroke:url(#linear-gradient-46);}.cls-47{stroke:url(#linear-gradient-47);}.cls-48{stroke:url(#linear-gradient-48);}.cls-49{stroke:url(#linear-gradient-49);}.cls-50{stroke:url(#linear-gradient-50);}.cls-51{stroke:url(#linear-gradient-51);}.cls-52{stroke:url(#linear-gradient-52);}.cls-53{stroke:url(#linear-gradient-53);}.cls-54{stroke:url(#linear-gradient-54);}.cls-55{stroke:url(#linear-gradient-55);}.cls-56{stroke:url(#linear-gradient-56);}.cls-57{stroke:url(#linear-gradient-57);}.cls-58{stroke:url(#linear-gradient-58);}.cls-59{stroke:url(#linear-gradient-59);}.cls-60{stroke:url(#linear-gradient-60);}.cls-61{stroke:url(#linear-gradient-61);}.cls-62{stroke:url(#linear-gradient-62);}</style><linearGradient id="linear-gradient" x1="18.17" y1="383.95" x2="21.78" y2="383.95" gradientUnits="userSpaceOnUse"><stop offset="0" stop-color="#595959" stop-opacity="0.85"/><stop offset="0.17" stop-color="#424041" stop-opacity="0.87"/><stop offset="0.39" stop-color="#2b2829" stop-opacity="0.89"/><stop offset="0.54" stop-color="#231f20" stop-opacity="0.9"/><stop offset="0.68" stop-color="#363334" stop-opacity="0.83"/><stop offset="1" stop-color="#595959" stop-opacity="0.7"/></linearGradient><linearGradient id="linear-gradient-2" x1="36.43" y1="383.42" x2="47.42" y2="383.42" xlink:href="#linear-gradient"/><linearGradient id="linear-gradient-3" x1="54.17" y1="383.1" x2="68.86" y2="383.1" xlink:href="#linear-gradient"/><linearGradient id="linear-gradient-4" x1="69.01" y1="382.97" x2="95.18" y2="382.97" xlink:href="#linear-gradient"/><linearGradient id="linear-gradient-5" x1="82.18" y1="382.98" x2="121.93" y2="382.98" xlink:href="#linear-gradient"/><linearGradient id="linear-gradient-6" x1="93.4" y1="383.1" x2="149.49" y2="383.1" xlink:href="#linear-gradient"/><linearGradient id="linear-gradient-7" x1="104.4" y1="383.34" x2="177.32" y2="383.34" xlink:href="#linear-gradient"/><linearGradient id="linear-gradient-8" x1="115.36" y1="383.64" x2="205.04" y2="383.64" xlink:href="#linear-gradient"/><linearGradient id="linear-gradient-9" x1="126.87" y1="383.98" x2="232.47" y2="383.98" xlink:href="#linear-gradient"/><linearGradient id="linear-gradient-10" x1="139.46" y1="384.34" x2="259.22" y2="384.34" xlink:href="#linear-gradient"/><linearGradient id="linear-gradient-11" x1="153.75" y1="384.7" x2="285.06" y2="384.7" xlink:href="#linear-gradient"/><linearGradient id="linear-gradient-12" x1="170.34" y1="385.03" x2="309.7" y2="385.03" xlink:href="#linear-gradient"/><linearGradient id="linear-gradient-13" x1="189.71" y1="385.32" x2="332.87" y2="385.32" xlink:href="#linear-gradient"/><linearGradient id="linear-gradient-14" x1="210.62" y1="385.38" x2="352.98" y2="385.38" xlink:href="#linear-gradient"/><linearGradient id="linear-gradient-15" x1="231.07" y1="385.46" x2="369.9" y2="385.46" xlink:href="#linear-gradient"/><linearGradient id="linear-gradient-16" x1="251.19" y1="385.6" x2="384.34" y2="385.6" xlink:href="#linear-gradient"/><linearGradient id="linear-gradient-17" x1="270.98" y1="385.77" x2="396.89" y2="385.77" xlink:href="#linear-gradient"/><linearGradient id="linear-gradient-18" x1="290.46" y1="385.96" x2="408.11" y2="385.96" xlink:href="#linear-gradient"/><linearGradient id="linear-gradient-19" x1="309.67" y1="386.16" x2="418.62" y2="386.16" xlink:href="#linear-gradient"/><linearGradient id="linear-gradient-20" x1="328.71" y1="386.29" x2="444.9" y2="386.29" xlink:href="#linear-gradient"/><linearGradient id="linear-gradient-21" x1="347.72" y1="386.41" x2="480.98" y2="386.41" xlink:href="#linear-gradient"/><linearGradient id="linear-gradient-22" x1="366.88" y1="386.52" x2="517.14" y2="386.52" xlink:href="#linear-gradient"/><linearGradient id="linear-gradient-23" x1="386.41" y1="386.63" x2="549.92" y2="386.63" xlink:href="#linear-gradient"/><linearGradient id="linear-gradient-24" x1="406.53" y1="386.73" x2="578.54" y2="386.73" xlink:href="#linear-gradient"/><linearGradient id="linear-gradient-25" x1="427.43" y1="386.81" x2="604.84" y2="386.81" xlink:href="#linear-gradient"/><linearGradient id="linear-gradient-26" x1="450.14" y1="386.88" x2="626.15" y2="386.88" xlink:href="#linear-gradient"/><linearGradient id="linear-gradient-27" x1="474.24" y1="386.98" x2="643.99" y2="386.98" xlink:href="#linear-gradient"/><linearGradient id="linear-gradient-28" x1="500.98" y1="387.09" x2="659.6" y2="387.09" xlink:href="#linear-gradient"/><linearGradient id="linear-gradient-29" x1="529.37" y1="387.24" x2="673.47" y2="387.24" xlink:href="#linear-gradient"/><linearGradient id="linear-gradient-30" x1="558.93" y1="387.42" x2="686.11" y2="387.42" xlink:href="#linear-gradient"/><linearGradient id="linear-gradient-31" x1="589.18" y1="387.63" x2="698.02" y2="387.63" xlink:href="#linear-gradient"/><linearGradient id="linear-gradient-32" x1="619.62" y1="387.83" x2="709.72" y2="387.83" xlink:href="#linear-gradient"/><linearGradient id="linear-gradient-33" x1="639.03" y1="388.03" x2="721.74" y2="388.03" xlink:href="#linear-gradient"/><linearGradient id="linear-gradient-34" x1="649.48" y1="388.17" x2="734.86" y2="388.17" xlink:href="#linear-gradient"/><linearGradient id="linear-gradient-35" x1="661.48" y1="388.29" x2="755.89" y2="388.29" xlink:href="#linear-gradient"/><linearGradient id="linear-gradient-36" x1="675.7" y1="388.41" x2="777.51" y2="388.41" xlink:href="#linear-gradient"/><linearGradient id="linear-gradient-37" x1="692.76" y1="388.5" x2="799.19" y2="388.5" xlink:href="#linear-gradient"/><linearGradient id="linear-gradient-38" x1="713.22" y1="388.6" x2="820.81" y2="388.6" xlink:href="#linear-gradient"/><linearGradient id="linear-gradient-39" x1="734.91" y1="388.73" x2="842.42" y2="388.73" xlink:href="#linear-gradient"/><linearGradient id="linear-gradient-40" x1="756.83" y1="388.86" x2="864.05" y2="388.86" xlink:href="#linear-gradient"/><linearGradient id="linear-gradient-41" x1="778.92" y1="388.99" x2="890.14" y2="388.99" xlink:href="#linear-gradient"/><linearGradient id="linear-gradient-42" x1="801.13" y1="389.1" x2="923.54" y2="389.1" xlink:href="#linear-gradient"/><linearGradient id="linear-gradient-43" x1="823.39" y1="389.15" x2="958.3" y2="389.15" xlink:href="#linear-gradient"/><linearGradient id="linear-gradient-44" x1="843.09" y1="389.2" x2="993.58" y2="389.2" xlink:href="#linear-gradient"/><linearGradient id="linear-gradient-45" x1="865.04" y1="389.26" x2="1028.67" y2="389.26" xlink:href="#linear-gradient"/><linearGradient id="linear-gradient-46" x1="886.48" y1="389.32" x2="1062.89" y2="389.32" xlink:href="#linear-gradient"/><linearGradient id="linear-gradient-47" x1="899.53" y1="389.4" x2="1095.55" y2="389.4" xlink:href="#linear-gradient"/><linearGradient id="linear-gradient-48" x1="914.39" y1="389.5" x2="1125.98" y2="389.5" xlink:href="#linear-gradient"/><linearGradient id="linear-gradient-49" x1="931.63" y1="389.63" x2="1153.41" y2="389.63" xlink:href="#linear-gradient"/><linearGradient id="linear-gradient-50" x1="951.93" y1="389.77" x2="1177.05" y2="389.77" xlink:href="#linear-gradient"/><linearGradient id="linear-gradient-51" x1="976.9" y1="389.84" x2="1195.65" y2="389.84" xlink:href="#linear-gradient"/><linearGradient id="linear-gradient-52" x1="1005.78" y1="389.95" x2="1211.38" y2="389.95" xlink:href="#linear-gradient"/><linearGradient id="linear-gradient-53" x1="1037.81" y1="390.08" x2="1224.82" y2="390.08" xlink:href="#linear-gradient"/><linearGradient id="linear-gradient-54" x1="1072.2" y1="390.24" x2="1236.58" y2="390.24" xlink:href="#linear-gradient"/><linearGradient id="linear-gradient-55" x1="1108.16" y1="390.4" x2="1247.23" y2="390.4" xlink:href="#linear-gradient"/><linearGradient id="linear-gradient-56" x1="1144.9" y1="390.58" x2="1257.39" y2="390.58" xlink:href="#linear-gradient"/><linearGradient id="linear-gradient-57" x1="1181.62" y1="390.75" x2="1267.65" y2="390.75" xlink:href="#linear-gradient"/><linearGradient id="linear-gradient-58" x1="1217.49" y1="390.91" x2="1278.59" y2="390.91" xlink:href="#linear-gradient"/><linearGradient id="linear-gradient-59" x1="1251.76" y1="391.1" x2="1289.6" y2="391.1" xlink:href="#linear-gradient"/><linearGradient id="linear-gradient-60" x1="1284.48" y1="391.24" x2="1304.73" y2="391.24" xlink:href="#linear-gradient"/><linearGradient id="linear-gradient-61" x1="1311.82" y1="391.34" x2="1321.38" y2="391.34" xlink:href="#linear-gradient"/><linearGradient id="linear-gradient-62" x1="1336.57" y1="391.4" x2="1339.94" y2="391.4" xlink:href="#linear-gradient"/></defs><path class="cls-1" d="M19.67-29c.42,275.28,1.11,550.6,0,825.87"/><path class="cls-2" d="M41.28-28.87c2.23,137.32-8.07,275.39-.58,412.58,7.46,136.42,6.13,275.51,1,412"/><path class="cls-3" d="M62.9-28.74c.76,40.25-3,80.16-4.44,120.34-1.18,33.63.08,67.31-.63,101C56.49,256,52.34,319.73,61.09,382.73c7.09,51.12,8,100.39,3.62,151.55-2.62,30.81-.76,62.84-.95,93.82-.34,55.64,2.26,111.18-.23,166.8"/><path class="cls-4" d="M84.52-28.62C85,10.58,78.67,48.82,75.9,87.79c-2.4,33.75-.79,67.72-2,101.54C71.48,253.85,65,318,80.94,381.19c7.49,29.55,11.86,57.27,12.7,87.75.53,19.05-5,33.76-9.47,52-7.1,28.87-3.35,63.25-2.9,92.73.94,60.35,6.18,120.43,3.91,180.84"/><path class="cls-5" d="M106.14-28.5C106,9.56,96.85,45.57,92.41,83.11c-4,33.82-2.09,68.26-3.93,102.27-3.6,66.43-13.13,130.69,11.94,193.84,11,27.83,20.63,54.7,20,85.14-.41,19.06-10.34,30.88-18.27,47.43-12.78,26.66-6.8,64.27-5.5,92.75C99.54,668,108,730.83,106.71,794.44"/><path class="cls-6" d="M127.75-28.38c-.89,37-13,70.25-19.45,106.23-6,33.75-3.7,68.92-6.15,103.08-2.72,37.95-6.84,76-7.24,114-.33,31.17,9.56,55.31,24.74,82,14.26,25.08,30.66,52.39,28.07,82.56C146,479.73,130.26,490.86,119,506.17c-18.73,25.4-11,64.17-8.54,93.64,5.4,65.11,17.54,129.29,17.73,194.8"/><path class="cls-7" d="M149.36-28.27c-1.76,36.12-17,66.12-25.5,100.54-8.25,33.51-5.5,69.69-8.54,104-3.49,39.4-9,79.06-9.42,118.67-.36,32.15,13.9,54.86,32.88,79.63,16.92,22.1,40.87,49.86,36.52,80.09-3.15,21.91-25.88,34.37-40.24,48.81-24.78,24.93-15.79,63.17-11.8,95.12,8.21,65.69,24.19,130,26.3,196.39"/><path class="cls-8" d="M171-28.16C168.3,7.41,150,33.74,139.4,66.67S132,137.25,128.47,171.56c-4.25,40.83-11.15,82.2-11.6,123.32-.37,33.28,18.8,54.7,41.06,77.25,19.19,19.43,50.68,46.88,44.92,77.8-4.54,24.39-35,38.42-52.08,53.05-30,25.72-21.18,61.21-15.07,97,11.17,65.41,31,129,35.25,195.5"/><path class="cls-9" d="M192.56-28C189,7.32,167.94,29.76,155.21,61.34c-13,32.25-9.12,71.57-13.15,105.78-5,42.15-13.26,85.21-13.68,127.75-.35,34.52,24,54.6,48.86,74.95,20.88,17.07,60.08,43.82,52.85,75.81-6.18,27.33-43.67,42.9-63.61,58.48-10.91,8.53-22.8,18.6-25.89,32.85-4.37,20.16,3.46,46.51,7.73,66.09,14.09,64.58,37.54,126.88,44,193"/><path class="cls-10" d="M214.16-27.94c-4.26,35.52-27.87,54.09-42.55,84.49C156.49,87.84,161,129.18,156.55,163.17c-5.66,43.65-14,87.66-15.56,131.73-1.24,35.51,29.52,54.88,55.85,72.88,22.39,15.3,68.21,40.64,59.88,74.14-7.55,30.36-51.52,47.46-74.15,64.26-12.29,9.12-26.77,20.33-30.38,36.17-4.48,19.73,4.55,45.81,9.53,64.64,16.76,63.44,43.54,124.21,52.1,189.62"/><path class="cls-11" d="M235.77-27.83c-4.76,36-30.52,50.94-46.88,80.42-16.8,30.25-11.81,73.7-16.49,107.36-6.21,44.69-15.44,89.86-17.11,135-1.35,36.7,33.83,54.76,61.56,71.14,23.77,14,74.78,37.7,65.62,72.9-8.62,33.15-58,51.52-83,69.5-13.51,9.71-30.07,21.92-34,39.23-4.39,19.46,5.43,44.88,11,63.14,19,62.28,48.68,121.59,58.9,186.29"/><path class="cls-12" d="M257.39-27.7C252.51,9,225,20.84,207.36,49.75c-7.76,12.71-8.87,25.46-9.8,40-1.45,22.79-4.18,45.34-7.47,67.93-6.57,45-17.88,91.81-18.25,137.47-.31,38.06,36,54.21,65.56,69.87,25,13.25,79.35,35.18,69.66,72.13-9.29,35.44-62.74,54.46-89.63,73.35-14.4,10.11-32.45,23-36.32,41.54-4.07,19.42,5.95,43.87,12,61.85,20.64,61.37,52.71,119.59,63.87,183.81"/><path class="cls-13" d="M279-27.56c-4.48,37.64-33.34,47.07-51.71,75.88-8.07,12.65-8.79,25.44-9.61,40.05-1.29,22.92-4.23,45.59-7.64,68.28-6.82,45.47-18.38,92.61-18.86,138.78-.41,39,36.77,54.09,67.39,69.17,26.35,13,81.44,33.28,71.61,71.9-9.4,36.94-65.19,55.68-93.24,74.94-15,10.31-33.46,23.37-37.06,42.68-3.64,19.48,6.05,43.07,12.35,61,21.45,61,55.43,118.81,66.46,183"/><path class="cls-14" d="M300.59-27.44c-5.36,36.3-32.14,47.39-49.67,76-7.85,12.78-9,25.57-9.6,40.22-1,23-4,45.49-8,68.17-7.88,44.81-21.87,92.05-21.19,137.89.57,38.5,37.35,54.17,67.47,69.86,25.59,13.33,80.92,34.94,70.6,72.66-9.93,36.34-63.19,55.5-90.83,75.24-14.66,10.48-32.78,23.85-36.6,42.79-3.91,19.37,6.13,43.33,12.34,61.16,21.1,60.58,53.86,118,65.13,181.65"/><path class="cls-15" d="M322.15-27.32c-5.4,34.16-28.72,48.21-44.08,76.48-7.07,13-8.28,25.87-8.93,40.39-1,23-4.77,45-9.89,67.44-9.93,43.5-27.63,90.35-26.64,135.55.82,37.86,37,55.3,66.1,72.26,25,14.59,78.6,38.36,68.42,75.29-9.75,35.36-58,55.33-84.39,76-13.89,10.9-30.67,24.7-34.41,43.07-3.91,19.22,5.92,43.05,11.91,60.86,20,59.46,50.62,116,61.57,178.19"/><path class="cls-16" d="M343.75-27.21c-4.56,31.74-23.58,49.43-35.8,77.3-5.82,13.26-6.78,26.29-7.59,40.55-1.29,22.8-6.51,44.35-13.11,66.16C274.59,198.58,252.34,244.49,252.7,289c.29,37.37,35.76,57.34,63.52,76,24.75,16.65,74.86,42.72,65.46,79.42-8.79,34.32-50.67,55.21-75,77.17-12.8,11.54-27.4,25.77-30.72,43.54-3.55,19.1,5.4,42.17,11.07,60,18.38,57.83,46.45,113,56.43,173.2"/><path class="cls-17" d="M365.38-27.09c-3.22,29.3-17,51-25.45,78.32C335.77,64.71,335.27,78,334.17,92c-1.78,22.53-9,43.56-17.35,64.45-15.82,39.7-43.34,84.18-44.33,128.11-.83,37,33.82,60.16,60,80.82,24.62,19.43,70,47.67,61.94,84.72-7.24,33.17-41.89,55.1-63.42,78.59-29.9,32.63-27.93,62-16,102.89,16.33,55.8,41.53,109.19,50.08,167"/><path class="cls-18" d="M387-27C385.3.46,377.77,25.65,373.38,52.52c-2.23,13.6-2.12,27.24-3.61,40.88-2.43,22.22-12.19,42.77-22.3,62.45-19.16,37.32-52.58,80-55.39,123.46-2.39,36.82,31.47,63.62,55.82,86.38s64.37,52.88,58,90.82c-5.32,31.9-32.35,55.09-50.25,80.2C332,570,333.91,600.4,344,638.74c14,53.48,36.06,104.89,42.91,160"/><path class="cls-19" d="M408.72-26.84C408.47.07,408,27,407.66,53.9c-.18,13.6.66,27.58-1.3,41-3.19,21.91-15.83,42-27.65,60.29-22.45,34.74-62.25,75.44-67.18,118.51-4.19,36.63,28.92,67.52,51.29,92.37,24.05,26.72,58.14,58.06,53.95,97.34-3.27,30.64-22.74,55.27-36.21,81.93-16.91,33.5-15.33,65.11-7.22,101,11.51,51,30.24,100.31,35.26,152.62"/><path class="cls-20" d="M430.42-26.71c1.29,28.05,8,54.37,11.72,82,5.43,40.4-6.91,67.51-32.1,99.26-25.48,32.13-72,70.67-79.08,113.51-6.07,36.46,26.34,71.7,46.66,98.48,23.37,30.79,51.62,63,49.84,103.94C426.17,500,414,526.32,405.51,554.16,380.7,635.81,425,717.78,430.33,799.27"/><path class="cls-21" d="M452.11-26.59c3,30.33,16.29,54.48,24.07,83.23C487.29,97.72,469,124.4,441,153.92s-81.36,65.94-90.56,108.68c-7.81,36.28,23.91,75.9,42.25,104.39,22.32,34.67,45.2,67.74,45.88,110.26.47,28.89-4.78,56.81-8.15,85.37-9.55,80.9,18.81,156.82,21.64,236.88"/><path class="cls-22" d="M473.79-26.46c4.62,33,23.73,54.5,35.34,84.34,5.14,13.22,8.61,27.63,5.06,41.47-5.52,21.48-27.28,39.75-43.12,54-30.29,27.3-90.12,61.51-101,104.28-9.2,36.12,21.8,79.84,38.32,109.77,20.93,37.94,39.34,72.14,42.26,115.94,1.94,29,3.14,57.92,4.48,86.91,1.5,32.64,2.18,65.68,5.38,98.18,4.31,43.84,12.86,87,13.25,131.23"/><path class="cls-23" d="M495.43-26.34c6,35.43,30.05,54.57,44.93,85.29,6.32,13,10.48,27.49,6.5,41.59-6.1,21.58-30.29,39.15-47.06,52.45-22.31,17.7-46.08,33.53-68.06,51.67-15.42,12.73-36.18,28.7-41.82,48.88-10.06,36,20.18,83.19,35.14,114.3,19.38,40.29,34.56,76,39.15,120.63,3.05,29.69,9.92,58.91,15.28,88.23,6,32.72,6.52,64.48,8.43,97.52,2.42,41.94,7.88,83.54,7.46,125.62"/><path class="cls-24" d="M517-26.23c6.63,37.54,34.89,54.63,52.19,86,23.18,42-9.43,69.27-42.51,93.06C502.89,170,477.63,185,454.17,202.63c-16.05,12.06-38.27,27.5-44,47.91-10.19,36,19.25,85.62,33,117.65,17.89,41.67,31.34,79,36.7,124,3.66,30.72,15.1,59.69,23.57,89.24,9.37,32.67,9.67,63.55,10.49,97.18,1,40.48,3.76,80.84,3.08,121.35"/><path class="cls-25" d="M538.56-26.12c6.27,39.2,37.85,54.57,56.49,86.4,24.62,42-10.25,70.11-43.74,92.67-24.84,16.73-51.17,31.2-75.62,48.52-16.4,11.61-39.52,26.75-44.9,47.49C421.39,285.17,450,335.74,463,368.45,479.64,410.56,493,449.1,498,494.07c3.52,31.73,18.19,60.14,28.68,89.86,11.42,32.32,11.2,63.4,11.32,97.23.15,39.6.78,79.19.46,118.8"/><path class="cls-26" d="M560.18-26c6.31,39.09,37.81,54.63,56.33,86.46,24.41,42-10.77,69.94-43.94,92.68-24.64,16.89-50.73,31.62-75,49.09-16.17,11.66-39.33,27-44.67,47.55-4.56,17.58,4.13,40.7,9.22,56.94,6.63,21.12,14.75,41.74,22.7,62.39C501,411,514.37,449.86,519.54,494.42c3.68,31.77,18,60.35,28.37,90.22,11.27,32.53,10.76,63.52,11.08,97.47.38,39.3,1.77,78.56,1.17,117.87"/><path class="cls-27" d="M581.86-25.89c6.48,37.9,35.68,54.88,53,86.5,23,41.85-10.55,69.52-42.78,93.69-23.45,17.58-48.29,33.26-71.34,51.38-15.58,12.24-37.79,28.17-43.17,48.4-9.32,35,18.67,85.67,30.77,117.67C524,413,536.83,451.56,542.15,495.33c3.81,31.38,15.46,60.81,24.13,91,9.43,32.82,8.9,63.82,10.39,97.53,1.72,38.83,6.06,77.27,5.2,116.2"/><path class="cls-28" d="M603.5-25.77c6,36.52,32.3,55.2,47.86,86.58,20.61,41.57-9.82,69.64-40.48,95.79-21.78,18.58-44.94,35.5-66.31,54.55-14.8,13.2-35.3,30-40.35,50.11-8.69,34.63,17.34,83.11,29.06,114.94,14.79,40.17,27.29,78.05,31.8,120.7,3.3,31.19,11.43,61.53,17.69,92.19,6.68,32.65,6,64.57,9.28,97.47,3.83,38.13,11.87,75.09,11.44,113.62"/><path class="cls-29" d="M625.1-25.66c5,35,28,55.65,41.21,86.71,17.57,41.23-8.83,70.24-37.27,98.76-19.74,19.8-40.88,38.17-60.2,58.4-13.79,14.44-32.05,32.21-36.49,52.45C524.8,305.1,547.93,350.24,559.22,382c13.76,38.76,26,75.73,29,116.94,2.31,31.31,6.23,62.48,9.52,93.7,3.39,32.27,2.25,65.43,7.87,97.32,6.57,37.29,18.85,72.06,19.4,110.33"/><path class="cls-30" d="M646.66-25.54c3.76,33.43,22.93,56.19,33.52,86.85,14.12,40.91-7.81,71.3-33.39,102.35-26.95,32.72-77.36,73.73-85.22,118-6.08,34.19,13.57,75.44,24.33,107.18,12.56,37.1,24.55,73.11,25.74,112.57,1,31.81.19,63.63.1,95.45-.1,32.09-2.15,65.86,6.27,97.09,9.79,36.32,26.63,68.25,28.58,106.53"/><path class="cls-31" d="M668.2-25.42c2.43,31.89,17.42,56.81,25.19,87,10.48,40.7-6.86,72.77-29.09,106.34-24.21,36.56-66.85,80.24-72.86,125.7C587,327.32,603,364.71,613,396.23c11.28,35.32,22.83,70.35,22.08,107.83-.65,32.68-6.36,64.93-10.06,97.34s-7.17,65.74,4.58,96.81c13.34,35.24,34.84,63.85,38.49,102.43"/><path class="cls-32" d="M689.74-25.3c1.15,30.57,11.65,57.43,16.63,87.16,6.81,40.64-6,74.58-24.6,110.46-21,40.53-56.08,86.63-60.22,133.59-2.9,32.87,9.51,66.86,18.72,97.9,10,33.53,20.84,67.59,18.31,103-2.43,33.83-13.16,66.33-20.48,99.26-7.28,32.7-12.66,65.39,2.88,96.51,17,34,43.07,59.12,48.64,98.24"/><path class="cls-33" d="M711.27-25.18c0,29.64,5.92,57.94,8.28,87.31,3.26,40.74-5.29,76.61-20.2,114.49-17.45,44.35-45.49,92.62-47.9,141.27-1.57,31.72,7.7,63,15.91,93.27C676,443,686,476.12,682,509.46c-4.23,35.13-19.85,67.8-30.67,101.15-10.69,32.95-18.24,65.13,1.29,96.21,20.52,32.64,51,54.36,58.51,94.14"/><path class="cls-34" d="M732.81-25.06c-.91,29.2.54,58.26.55,87.45,0,40.92-4.68,78.69-16.13,118.17-13.84,47.74-35.53,98-36.52,148.36-.59,30.4,6.14,59.65,13.28,89,7.38,30.28,16.62,62.67,11.34,94-6.16,36.51-26.12,69.14-40.14,102.91-13.69,33-23.51,65.13-.13,95.93,23.7,31.23,58.38,49.86,67.64,90.37"/><path class="cls-35" d="M754.39-24.94c-3.76,69.22-4.79,141.05-18.81,208.82-10.45,50.52-26.67,102.47-26.68,154.47,0,29.1,4.85,56.95,11,85.28,6.26,29,14.53,60.67,8.59,90.36-7.56,37.76-31.66,70.43-48.4,104.43-16.12,32.74-28,65.39-1.28,95.71C705.11,744,743.7,760,754.29,801.24"/><path class="cls-36" d="M776-24.83c-1.92,29.6-7.92,58.3-11.41,87.66-4.89,41.11-4.1,82.31-10,123.5C742.68,268.66,729,345.51,744.68,428c5.33,28.06,12.81,59.18,6.66,87.6-8.4,38.85-36.12,71.55-55,105.65-17.86,32.33-31.36,65.86-2.1,95.56,28.31,28.73,70.44,42.46,81.66,84.58"/><path class="cls-37" d="M797.7-24.71C795.92,5.4,787.32,33.38,782.9,63c-6.12,41-4.33,83.32-8.57,124.65-8.37,81.84-20,161.17-6.18,242.85,4.63,27.44,11.65,58.36,5.77,86-8.45,39.66-39.17,72.41-59.34,106.46-18.81,31.76-33.17,66.5-2.49,95.53,29.49,27.91,74.66,39.91,85.55,83"/><path class="cls-38" d="M819.32-24.6c-1.78,30.16-10.61,58.06-15.09,87.69-6.2,41-4.4,83.45-8.46,124.8-8,81.43-20.65,161.77-5.63,242.93,5.07,27.4,11.67,57.86,6.23,85.62-7.87,40.16-40.57,72.91-61.3,106.82-19.16,31.33-33.08,66.79-2.31,95.42,29.72,27.65,76.49,39.33,86.58,82.87"/><path class="cls-39" d="M840.79-24.48C838.64,5,833.1,33.81,829.68,63.12c-4.84,41.46-4,82.94-10,124.47-11.7,80.65-30.48,161-7.63,241,7.84,27.49,15,56.62,9.37,85.31-8,40.75-42.61,73.47-64.22,107.39-20,31.46-33.22,66.39-2.59,95.56C784.07,745,830.9,758.22,841,801.71"/><path class="cls-40" d="M862.36-24.36c-4.42,70.49-2.69,141.68-17.68,210.9-11.25,51.91-28.09,104.78-28.18,158.33,0,29.18,6,52.66,17.56,79.28,11.69,27,21.31,54.88,15.13,84.75-8.59,41.52-46,74.38-68.9,108.31-21.46,31.75-34.48,66.09-3.88,96.42,29.36,29.09,76.19,44.34,86.17,88.21"/><path class="cls-41" d="M884-24.25c-1,29.44,3.43,58,4.43,87.3,1.45,42.33-5.22,81.37-17.78,121.82-15.39,49.56-39.48,102-40.28,154.72-.47,30.6,10.12,52.93,25.91,78.38,16,25.8,30.09,52.62,22.94,84-9.66,42.42-50.35,75.55-75,109.5-23.3,32.13-36.61,65.88-5.93,97.84,29.25,30.48,76,48,85.89,92.63"/><path class="cls-42" d="M905.73-24.13c.36,30.51,10.74,57.35,14.84,87.1,5.88,42.62-6.75,80.87-23.27,119.79-19.66,46.28-52.69,98.82-54.53,150.48-1.14,32.06,16.24,54,35.89,77.28,20.07,23.79,40.7,50,32.23,83.13-11.09,43.43-55.52,76.87-82.08,110.89-25.44,32.58-39.36,65.72-8.55,99.68,29.16,32.15,75.85,52.2,85.57,97.82"/><path class="cls-43" d="M927.5-24c2.11,32.25,18.61,56.48,26.25,86.89,10.78,42.89-9,80.67-29.42,117.48-23.54,42.34-67.05,95.36-70.12,145.86-2,33.42,24.43,55.52,46.94,76,23.32,21.26,52.48,47.09,42.41,82.18-12.77,44.52-61.17,78.27-89.82,112.4-27.77,33.07-42.49,65.6-11.52,101.8,29.07,34,75.67,56.69,85.23,103.49"/><path class="cls-44" d="M949.29-23.9c4.25,34.34,26.66,55.57,38.1,86.67,15.9,43.22-11.79,80.69-35.88,115-18.22,26-37.82,51-55.35,77.42-12.17,18.36-28.94,41-30.91,63.66-3,34.65,34.27,57.07,58.46,74.75,25.71,18.79,64.53,44,52.95,81.19-14.18,45.53-67.24,79.9-97.85,114-14,15.61-32.56,35.26-34.12,57.48-1.21,17.28,9.13,33.71,19.5,46.56,29,35.9,75.48,61.28,84.89,109.36"/><path class="cls-45" d="M971.09-23.79c6.61,36.48,34.55,54.8,49.79,86.46,21,43.63-15.13,80.88-42.31,112.64-21.45,25.05-44.25,48.95-65,74.59-13.56,16.76-34.64,39.4-37.15,61.77-4,35.69,44.93,58.36,69.89,73.48,27,16.37,76.7,41.24,63.29,80.22C993.53,512,936.54,546.62,903.79,580.9c-14.73,15.42-35.15,35.38-37.1,58.06-1.51,17.56,9.31,34.89,19.47,48.18,28.88,37.77,75.28,65.78,84.54,115.15"/><path class="cls-46" d="M992.86-23.68c9,38.47,42,54.19,60.77,86.26,25.84,44.11-18.74,81.17-48.37,110.42-24.51,24.18-50.33,47-74.15,71.92-14.66,15.32-39.9,37.8-42.85,60-4.86,36.59,55.4,59.25,80.62,72.32,27.67,14.33,88,38.7,72.87,79.32-8.33,22.3-28.78,40.13-45.8,56-22.17,20.67-46,39.61-67.47,61-15.37,15.26-37.57,35.49-39.84,58.61-1.75,17.8,9.5,36,19.47,49.65,28.77,39.5,75.08,70,84.21,120.57"/><path class="cls-47" d="M1014.58-23.57c11,40.23,48.62,53.71,70.47,86.08,30.09,44.59-22.3,81.55-53.71,108.53-27.26,23.4-55.81,45.32-82.37,69.52-15.51,14.15-44.39,36.29-47.64,58.55-5.46,37.42,64.72,59.75,90.07,71.31,28,12.74,97.89,36.46,81.15,78.54-9,22.74-30.76,40.64-48.61,56.56-23.45,20.92-48.51,40.06-71.3,61.72-15.9,15.12-39.62,35.53-42.11,59.06-1.9,18,9.7,36.86,19.5,50.88,28.65,41,74.88,73.71,83.91,125.33"/><path class="cls-48" d="M1036.22-23.45c12.45,41.75,54.09,53.31,78.3,85.93,33.43,45-25.38,82.05-58,107.12-29.56,22.76-60.29,44-89.26,67.51-16.22,13.19-47.74,35-51.1,57.46-5.76,38.35,72,60,97.61,70.53,28.21,11.62,105.57,34.51,87.6,77.93-9.56,23.11-32.33,41.05-50.84,57-24.53,21.13-50.66,40.42-74.51,62.35-16.31,15-41.19,35.5-43.72,59.38-1.93,18.15,9.9,37.47,19.56,51.74,28.53,42.12,74.69,76.75,83.66,129.13"/><path class="cls-49" d="M1057.75-23.33c13,43.16,58.14,52.79,83.7,85.81,35.29,45.6-27.31,82.56-60.76,106.37-31.28,22.28-63.77,42.84-94.42,66-16.83,12.72-49.58,33.94-52.86,56.86-5.67,39.55,76.31,60,102.65,70.07,28.57,11,110.44,32.8,91.68,77.54-9.81,23.39-33.35,41.35-52.3,57.27-25.33,21.3-52.29,40.69-76.91,62.83C981.94,574.33,956.41,594.8,954,619c-1.79,18.23,10.12,37.69,19.69,52.12,28.38,42.82,74.48,78.93,83.45,131.71"/><path class="cls-50" d="M1079.23-23.23C1091.86,20.68,1139,29.4,1165,62.61c35.82,45.84-28.09,83.21-61.77,106.33-32,22-65.34,42.15-96.7,65.14-17.26,12.66-49.81,33.38-52.83,56.84-5.23,40.57,77.19,59.87,104.39,70,29,10.78,111.82,31.85,92.68,77.45-9.86,23.5-33.67,41.45-52.77,57.37-25.65,21.35-52.93,40.77-77.84,63-16.61,14.83-42.37,35.29-44.43,59.53-1.54,18.16,10.46,37.57,19.93,52,28.22,43,73.92,80,83.16,132.67"/><path class="cls-51" d="M1101-23.2c13.15,42.81,57.8,53.79,83,87.1,34.47,45.63-27.16,82.34-60.7,106.12-30.68,21.75-62.57,41.79-92.57,64.49-16.7,12.64-49.08,33.9-52.09,56.73-5.15,39,75.51,60.08,101.69,70.48,28.43,11.29,108.94,33.89,89.57,78-10.15,23.12-32.83,41-51.56,57.17-24.56,21.14-50.67,40.5-74.51,62.47-16,14.73-41.74,35.82-43.87,59.43-1.6,17.82,10.89,37.8,20,52,27.5,43.17,70.41,80.24,80.44,132.2"/><path class="cls-52" d="M1122.72-23.11c12.63,41.86,54.28,55.69,77.78,89.43,31.64,45.41-24.21,80.86-57.49,105.78-28.58,21.39-58.49,41.05-86.27,63.51-16,12.91-46.4,34-49.23,56.28-4.81,37.78,70.18,60.32,95.77,71.59,28.28,12.45,102.27,36.31,83.77,79.09-21,48.47-81.47,82.65-118,118.32-15.24,14.86-39.49,36.08-41.5,59.05-1.53,17.53,10.51,37.61,19.1,51.89,26,43.15,65.58,80.39,75.37,131.33"/><path class="cls-53" d="M1144.32-23c11.32,41.05,49.51,58.24,70.68,92.64,27.67,45-19.81,79-52.55,105.31-25.94,20.9-53.13,40.3-78.21,62.25-15.14,13.25-42.2,34-44.73,55.58-4.3,36.71,62.11,60.49,87.25,73.19,28.2,14.24,92.64,39.1,75.88,80.58-19,46.9-73.57,80.89-107.26,116.55-14.33,15.18-35.93,36.1-37.7,58.42-1.37,17.31,9.49,37.09,17.52,51.62,23.75,43,59.62,80.44,68.39,130.13"/><path class="cls-54" d="M1165.84-22.82c9.53,40.37,43.8,61.31,62.14,96.49,23.07,44.27-14.81,76.56-46.27,104.77-22.79,20.44-46.93,39.41-68.87,60.79-14.09,13.74-36.84,33.75-39,54.68-3.64,35.71,52.11,60.4,76.75,75.16,27.84,16.66,80.8,42.26,66.44,82.37-16.15,45.08-64.33,78.92-94.37,114.43-13.26,15.67-31.39,36-32.84,57.63-1.15,17.15,8,36.32,15.37,51.23,21,42.74,52.78,80.42,60,128.68"/><path class="cls-55" d="M1187.3-22.63c7.5,39.82,37.44,64.75,52.66,100.77,18.18,43.05-9.77,74.09-39.1,104.16-19.39,19.88-40.15,38.46-58.65,59.19-12.82,14.37-30.76,33.43-32.42,53.66-2.85,34.74,41.14,59.9,64.93,77.38,26.79,19.68,67.54,45.69,56,84.34-12.88,43.1-54.22,76.8-80.1,112.1-11.93,16.27-26.2,35.71-27.28,56.71-.88,17.05,6.32,35.39,12.83,50.77,17.95,42.41,45.31,80.37,50.71,127.09"/><path class="cls-56" d="M1208.73-22.42c5.44,39.47,30.69,68.36,42.7,105.26,13.45,41.33-5.37,71.76-31.44,103.5-24.27,29.55-71.08,68.56-73.5,110.1-2,33.8,30.26,59,52.41,79.74,24.52,23,53.89,49.38,45.11,86.4-9.75,41.1-43.68,74.45-65.15,109.65-21.8,35.74-25.1,66.5-11.31,106,14.65,42,37.46,80.26,41,125.4"/><path class="cls-57" d="M1230.16-22.22c3.51,39.39,23.83,71.95,32.74,109.76,9.24,39.19-2.05,69.9-23.73,102.83-20.87,31.7-54.48,67.23-56,107.37-1.25,32.82,20.58,57.93,39.87,82.09,21.06,26.39,40.17,52.9,34.3,88.45-6.44,39-33.39,72.27-50.2,107.19-38.53,80,19.81,147.8,23,228.32"/><path class="cls-58" d="M1251.61-22c1.83,39.59,17.21,75.28,23.28,114,5.79,36.94.1,68.71-16.41,102.18C1241.87,227.85,1220,260.28,1219,299c-.79,31.88,12.81,57.26,27.94,84.33,16.43,29.37,27.22,56,24.14,90.38-3.33,37-23.79,70.37-36,104.85-27.35,77.37,16.18,147.91,16.64,225.39"/><path class="cls-59" d="M1273.1-21.84c.94,75.21,29.81,144.91,4.88,219.4-11.57,34.6-24.28,65.6-24.71,102.48-.36,31,6.93,57.37,17.32,86.33,11.13,31,16.18,59,15.11,92.08-1.14,35.39-15.21,68.65-23.16,102.75C1245,656.4,1274.85,728.86,1273.38,804"/><path class="cls-60" d="M1294.67-21.7c-.65,74.2,17.27,148.17,3.07,222-12.47,64.9-16.89,123.23-4,188.54,13.2,66.8,3.84,127.92-4.7,194.47-9.47,73.8,8.32,147,5.94,220.81"/><path class="cls-61" d="M1316.36-21.61c-1.11,74.55,7.24,149.43,1.46,223.89-4.89,63-6.4,125.27-1.49,188.33,5.07,65,1.15,129.22-2,194.14-3.52,73.16,4.29,146.35,2.25,219.52"/><path class="cls-62" d="M1338.18-21.59c-.47,275.33.75,550.66,0,826"/></svg>