<svg id="Layer_1" data-name="Layer 1" xmlns="http://www.w3.org/2000/svg" width="205" height="82" viewBox="0 0 205 82"><defs><style>.cls-1{fill:#fff;}</style></defs><path class="cls-1" d="M43.22,72.33A31.33,31.33,0,1,1,65.37,18.85l1.26,1.26-6.44,6.45-1.27-1.27a22.21,22.21,0,1,0-1.31,32.63l-1.39-1.39a20.25,20.25,0,1,1,1.32-29.85,1.8,1.8,0,0,1,0,2.53,1.79,1.79,0,0,1-2.53,0,16.67,16.67,0,1,0,0,23.58l1.26-1.26L62.72,58l-1.27,1.27a25.79,25.79,0,1,1-1.31-37.7l1.39-1.39a27.75,27.75,0,1,0-18.31,48.6,27.53,27.53,0,0,0,19.62-8.13,1.8,1.8,0,0,1,2.53,0,1.79,1.79,0,0,1,0,2.53A31.13,31.13,0,0,1,43.22,72.33Z"/><path class="cls-1" d="M75.63,40.8a15.43,15.43,0,0,1,28.17-8.89l-5.37,3.74a8.07,8.07,0,0,0-7.09-4,8.77,8.77,0,0,0-8.75,9.11c0,5,3.52,9.24,8.71,9.24a8.06,8.06,0,0,0,7.13-4l5.37,3.74A15.44,15.44,0,0,1,91,56.56,15.62,15.62,0,0,1,75.63,40.8Z"/><path class="cls-1" d="M104.89,56V24.3h6.52V56Z"/><path class="cls-1" d="M113,45.77C113,39.26,118.31,35,124.17,35s11.17,4.31,11.17,10.82S130,56.56,124.17,56.56,113,52.24,113,45.77Zm15.67,0a4.54,4.54,0,1,0-4.53,4.76A4.53,4.53,0,0,0,128.7,45.77Z"/><path class="cls-1" d="M135.78,49.38h6.16a2.3,2.3,0,0,0,2.6,2.2c1.36,0,2.51-.7,2.51-1.67,0-.66-.49-1-2-1.32l-2.68-.7c-6-1.63-6.21-5.06-6.21-6.78,0-3,3.44-6.16,8.41-6.16,3.87,0,8.58,1.8,8.49,6.95h-6.16a1.93,1.93,0,0,0-2.2-2c-1.1,0-2,.53-2,1.41s.7,1.23,1.76,1.5l3.56,1c5.15,1.41,5.59,4.67,5.59,6.08,0,4.53-4.71,6.69-8.85,6.69C140.14,56.56,135.78,54.05,135.78,49.38Z"/><path class="cls-1" d="M175.87,47.67H160.82a4.64,4.64,0,0,0,4.8,3.21,7.82,7.82,0,0,0,5.19-2.11L174.15,53a12.58,12.58,0,0,1-9,3.57c-6.51,0-11.09-4.49-11.09-10.74,0-6.69,5.15-10.87,11-10.87S176,39.09,176,45.33C176,45.91,175.91,46.65,175.87,47.67Zm-6.38-3.83c-.09-2-1.9-3.39-4.23-3.39a4.36,4.36,0,0,0-4.49,3.39Z"/><path class="cls-1" d="M193.11,35.56l-1.54,6.21a5.37,5.37,0,0,0-2.94-.79c-2.56,0-4.67,2.15-4.67,8.23V56h-6.51V35.48h6.42v4.35C185.06,36.44,187.53,35,190,35A6.73,6.73,0,0,1,193.11,35.56Z"/></svg>